<svg width="38" height="77" viewBox="0 0 38 77" fill="none" xmlns="http://www.w3.org/2000/svg">
  <path fill-rule="evenodd" clip-rule="evenodd"
    d="M19.0001 0C19.5305 0 20.0392 0.210714 20.4143 0.585787C20.7894 0.96086 21.0001 1.46957 21.0001 2V69.172L33.5841 56.584C33.9596 56.2085 34.469 55.9975 35.0001 55.9975C35.5312 55.9975 36.0405 56.2085 36.4161 56.584C36.7916 56.9595 37.0026 57.4689 37.0026 58C37.0026 58.5311 36.7916 59.0405 36.4161 59.416L20.4161 75.416C20.2303 75.6023 20.0096 75.75 19.7666 75.8508C19.5236 75.9517 19.2632 76.0036 19.0001 76.0036C18.737 76.0036 18.4765 75.9517 18.2336 75.8508C17.9906 75.75 17.7699 75.6023 17.5841 75.416L1.58408 59.416C1.20854 59.0405 0.997559 58.5311 0.997559 58C0.997559 57.4689 1.20854 56.9595 1.58408 56.584C1.95963 56.2085 2.46898 55.9975 3.00008 55.9975C3.53119 55.9975 4.04054 56.2085 4.41609 56.584L17.0001 69.172V2C17.0001 1.46957 17.2108 0.96086 17.5859 0.585787C17.9609 0.210714 18.4697 0 19.0001 0Z"
    fill="currentcolor" />
</svg>